HIERARCHY
ROOT root
{
	OFFSET	0	13.1	24.9
	CHANNELS 6  Xposition Yposition Zposition Xrotation Yrotation Zrotation
	JOINT spine_1
	{
		OFFSET	0	9.99999	0
		CHANNELS 3  Xrotation Yrotation Zrotation
		JOINT spine_2
		{
			OFFSET	0	112	-10
			CHANNELS 3  Xrotation Yrotation Zrotation
			JOINT spine_3
			{
				OFFSET	0	206.5	19.3
				CHANNELS 3  Xrotation Yrotation Zrotation
				JOINT spine_4
				{
					OFFSET	0	110.4	14.6
					CHANNELS 3  Xrotation Yrotation Zrotation
					JOINT neck_1
					{
						OFFSET	0	71.8	-50.3
						CHANNELS 3  Xrotation Yrotation Zrotation
						JOINT neck_2
						{
							OFFSET	0	86.2	-25.8
							CHANNELS 3  Xrotation Yrotation Zrotation
							JOINT head_ee
							{
								OFFSET	0	179.8	-8.7
								CHANNELS 3  Xrotation Yrotation Zrotation
								End Site
								{
									OFFSET	1	0	0
								}
							}
						}
					}
					JOINT left_clavicle
					{
						OFFSET	-43.2	22.4	-70.8
						CHANNELS 3  Xrotation Yrotation Zrotation
						JOINT left_shoulder
						{
							OFFSET	-93.9	-5.79999	48.7
							CHANNELS 3  Xrotation Yrotation Zrotation
							JOINT left_elbow
							{
								OFFSET	-291.4	-30.8	15.2
								CHANNELS 3  Xrotation Yrotation Zrotation
								JOINT left_lowarm_twist
								{
									OFFSET	-110.7	-3.89999	13.6
									CHANNELS 3  Xrotation Yrotation Zrotation
									JOINT left_hand
									{
										OFFSET	-110.7	-3.89999	13.6
										CHANNELS 3  Xrotation Yrotation Zrotation
										JOINT left_ee
										{
											OFFSET	-80.8	-5.10001	12.1
											CHANNELS 3  Xrotation Yrotation Zrotation
											End Site
											{
												OFFSET	1	0	0
											}
										}
									}
								}
							}
						}
					}
					JOINT right_clavicle
					{
						OFFSET	43.2	22.4	-70.8
						CHANNELS 3  Xrotation Yrotation Zrotation
						JOINT right_shoulder
						{
							OFFSET	93.9	-5.79999	48.7
							CHANNELS 3  Xrotation Yrotation Zrotation
							JOINT right_elbow
							{
								OFFSET	291.4	-30.8	15.2
								CHANNELS 3  Xrotation Yrotation Zrotation
								JOINT right_lowarm_twist
								{
									OFFSET	110.7	-3.89999	13.6
									CHANNELS 3  Xrotation Yrotation Zrotation
									JOINT right_hand
									{
										OFFSET	110.7	-3.89999	13.6
										CHANNELS 3  Xrotation Yrotation Zrotation
										JOINT right_ee
										{
											OFFSET	80.8	-5.10001	12.1
											CHANNELS 3  Xrotation Yrotation Zrotation
											End Site
											{
												OFFSET	1	0	0
											}
										}
									}
								}
							}
						}
					}
				}
			}
		}
	}
	JOINT left_hip
	{
		OFFSET	-82.8	-127.5	0.300001
		CHANNELS 3  Xrotation Yrotation Zrotation
		JOINT left_knee
		{
			OFFSET	-28.2	-396.7	2.2
			CHANNELS 3  Xrotation Yrotation Zrotation
			JOINT left_ankle
			{
				OFFSET	-11.7	-411.3	35.4
				CHANNELS 3  Xrotation Yrotation Zrotation
				JOINT left_toes
				{
					OFFSET	0	-60	-88.6
					CHANNELS 3  Xrotation Yrotation Zrotation
					JOINT left_foot_ee
					{
						OFFSET	-22.5	-16.5	-42.2
						CHANNELS 3  Xrotation Yrotation Zrotation
						End Site
						{
							OFFSET	1	0	0
						}
					}
				}
			}
		}
	}
	JOINT right_hip
	{
		OFFSET	82.8	-127.5	0.300001
		CHANNELS 3  Xrotation Yrotation Zrotation
		JOINT right_knee
		{
			OFFSET	28.2	-396.7	2.2
			CHANNELS 3  Xrotation Yrotation Zrotation
			JOINT right_ankle
			{
				OFFSET	11.7	-411.3	35.4
				CHANNELS 3  Xrotation Yrotation Zrotation
				JOINT right_toes
				{
					OFFSET	0	-60	-88.6
					CHANNELS 3  Xrotation Yrotation Zrotation
					JOINT right_foot_ee
					{
						OFFSET	22.5	-16.5	-42.2
						CHANNELS 3  Xrotation Yrotation Zrotation
						End Site
						{
							OFFSET	1	0	0
						}
					}
				}
			}
		}
	}
}
MOTION
Frames: 14
Frame Time: 0.02
2920.48895074 678.974 -1869.78425477 13.6406271262 31.4332515331 3.18803674433 -5.74019 -0.729754 -2.81267 -5.73595 -0.549373 -2.85336 -5.6986 0.350813 -2.88449 -5.7102 -0.108941 -2.90368 5.28157 10.7985 11.8021 5.61019 8.03777 14.0332 -0.0 0.0 -0.0 9.00691 2.77902 17.5076 20.3288 -5.93322 57.5025 0.62283 -17.1468 0.0938991 19.9663 0.266188 -2.52375 2.75841 -8.64731 15.1217 -0.0 0.0 -0.0 6.77287 16.2648 -12.5605 -3.92274 13.91 -61.3826 0.399769 11.2018 -0.0392042 61.8962 1.94562 7.28004 1.48511 -7.73152 -12.9678 0.0 0.0 0.0 7.07498 -32.1368 -3.55139 -38.1441 -0.352937 5.73671 -13.9125 28.0079 2.20731 20.5964 -0.0 -0.0 -0.0 0.0 -0.0 11.7926 22.504 -19.8638 -48.5672 1.09969 -7.153 17.9619 -12.541 2.4853 30.1901 -0.0 -0.0 0.0 0.0 0.0 
2895.78206148 686.263 -1873.49308779 13.4074798385 31.82736851 2.44409303755 -5.41965 -0.422424 -2.73772 -5.41551 -0.247428 -2.75903 -5.39544 0.595354 -2.70541 -5.40561 0.160785 -2.76542 3.06882 10.8748 12.1411 3.43528 8.49298 14.2837 -0.0 0.0 -0.0 9.5085 1.13812 18.5937 20.428 -6.10243 55.5466 0.72474 -19.7489 0.126156 17.7558 0.280265 -2.24177 2.90909 -4.41643 18.0209 -0.0 0.0 -0.0 8.37152 14.5918 -16.1288 -8.3908 12.8073 -57.4467 0.326201 9.17929 -0.0261861 61.9806 1.95339 7.28757 0.977117 -9.44208 -10.2514 0.0 0.0 0.0 3.87686 -20.6642 -6.18319 -33.2888 -0.0958898 5.03665 2.17278 25.3953 -0.330828 24.764 -0.0 -0.0 -0.0 0.0 -0.0 16.7195 17.3394 -18.6842 -49.6545 1.19221 -7.29253 16.2557 -12.7021 2.26573 28.9416 -0.0 -0.0 0.0 0.0 0.0 
2890.18747467 686.263 -1865.55711782 13.6470023796 33.3837159999 1.99963059467 -5.41965 -0.422424 -2.73772 -5.41551 -0.247428 -2.75903 -5.39544 0.595354 -2.70541 -5.40561 0.160785 -2.76542 3.06882 10.8748 12.1411 3.43528 8.49298 14.2837 -0.0 0.0 -0.0 9.5085 1.13812 18.5937 20.428 -6.10243 55.5466 0.72474 -19.7489 0.126156 17.7558 0.280265 -2.24177 2.90909 -4.41643 18.0209 -0.0 0.0 -0.0 8.37152 14.5918 -16.1288 -8.3908 12.8073 -57.4467 0.326201 9.17929 -0.0261861 61.9806 1.95339 7.28757 0.977117 -9.44208 -10.2514 0.0 0.0 0.0 3.87686 -20.6642 -6.18319 -33.2888 -0.0958898 5.03665 2.17278 25.3953 -0.330828 24.764 -0.0 -0.0 -0.0 0.0 -0.0 16.7195 17.3394 -18.6842 -49.6545 1.19221 -7.29253 16.2557 -12.7021 2.26573 28.9416 -0.0 -0.0 0.0 0.0 0.0 
2867.66226838 686.252 -1859.33623038 12.6733830538 34.6744840718 1.61310019685 -5.05257 -0.438176 -2.62392 -5.04878 -0.270381 -2.64646 -5.02905 0.522813 -2.60839 -5.03853 0.104458 -2.65818 2.68098 11.6412 12.1034 3.059 9.98127 14.269 -0.0 0.0 -0.0 9.82971 -0.415541 19.3224 19.2496 -8.39115 52.7276 0.877884 -23.5029 0.182627 18.0427 0.279053 -2.27839 2.93875 -3.17806 18.7532 -0.0 0.0 -0.0 8.23032 13.9678 -15.8522 -9.47296 12.5002 -57.1714 0.283473 7.99361 -0.0198065 62.4565 1.99744 7.32982 0.766881 -10.586 -9.31515 0.0 0.0 0.0 4.98503 -9.88215 -7.45026 -31.8829 -0.0326464 4.83019 7.29611 19.2346 -1.06662 24.3956 -0.0 -0.0 -0.0 0.0 -0.0 20.5241 16.6971 -19.4193 -50.4947 1.26553 -7.39914 14.6367 -11.9992 2.05106 28.7502 -0.0 -0.0 0.0 0.0 0.0 
2815.53277436 697.021 -1875.35993634 9.7526942632 34.1167256252 2.36192075465 -4.55523 -0.576364 -2.80736 -4.55094 -0.396631 -2.83831 -4.52324 0.433722 -2.83288 -4.53444 -0.018931 -2.8658 1.21158 13.5616 10.6237 1.58868 15.1004 12.7547 -0.0 0.0 -0.0 10.8029 -1.08416 21.3869 19.3558 -7.2869 47.6087 1.34389 -33.6509 0.406412 16.4381 0.283478 -2.0735 2.71769 -3.71486 16.9651 -0.0 0.0 -0.0 8.69694 10.2768 -17.0 -15.8342 12.0373 -54.0745 0.50072 13.9308 -0.0611741 61.295 1.89056 7.22608 -1.1917 -18.7822 -0.43266 0.0 0.0 0.0 3.03007 23.9202 -10.7536 -15.7853 0.322017 2.39337 21.5478 6.71352 -2.92076 29.1268 -0.0 -0.0 -0.0 0.0 -0.0 26.0893 1.15613 -14.808 -49.1666 1.15037 -7.23013 13.9022 -6.75371 1.94814 25.1521 -0.0 -0.0 0.0 0.0 0.0 
2789.781626 699.619 -1883.1052362 11.5526872311 34.5008583188 0.890822940748 -5.02544 -0.638495 -2.79047 -5.02122 -0.45971 -2.8254 -4.98985 0.392635 -2.83549 -5.00107 -0.0599155 -2.8619 1.06917 14.8097 11.0884 1.5048 16.9753 13.3577 -0.0 0.0 -0.0 10.6994 -1.29555 21.1797 19.0352 -7.81458 46.9779 1.53947 -37.3269 0.520015 15.3618 0.28323 -1.93603 2.99294 -3.76654 18.8915 -0.0 0.0 -0.0 9.09703 8.92091 -17.8894 -17.1371 12.2099 -51.7179 0.478264 13.3288 -0.0558823 60.5742 1.82531 7.16064 -1.39826 -19.1707 0.630033 0.0 0.0 0.0 -3.45427 31.0511 -8.58735 -8.94073 0.263584 1.34542 24.2046 6.17578 -3.23815 30.316 -0.0 -0.0 -0.0 0.0 -0.0 33.2472 -0.962062 -13.7636 -47.4801 1.00986 -7.01181 12.4776 -7.76281 1.75785 24.0209 -0.0 -0.0 0.0 0.0 0.0 
2787.77985703 699.619 -1879.43905337 11.6281428397 35.0308719148 0.758498195827 -5.02544 -0.638495 -2.79047 -5.02122 -0.45971 -2.8254 -4.98985 0.392635 -2.83549 -5.00107 -0.0599155 -2.8619 1.06917 14.8097 11.0884 1.5048 16.9753 13.3577 -0.0 0.0 -0.0 10.6994 -1.29555 21.1797 19.0352 -7.81458 46.9779 1.53947 -37.3269 0.520015 15.3618 0.28323 -1.93603 2.99294 -3.76654 18.8915 -0.0 0.0 -0.0 9.09703 8.92091 -17.8894 -17.1371 12.2099 -51.7179 0.478264 13.3288 -0.0558823 60.5742 1.82531 7.16064 -1.39826 -19.1707 0.630033 0.0 0.0 0.0 -3.45427 31.0511 -8.58735 -8.94073 0.263584 1.34542 24.2046 6.17578 -3.23815 30.316 -0.0 -0.0 -0.0 0.0 -0.0 33.2472 -0.962062 -13.7636 -47.4801 1.00986 -7.01181 12.4776 -7.76281 1.75785 24.0209 -0.0 -0.0 0.0 0.0 0.0 
2777.15276354 697.594 -1880.46682731 10.5111249582 33.7141323003 1.75622160839 -4.93016 -0.594054 -2.93704 -4.92545 -0.406043 -2.96885 -4.89515 0.481383 -2.95758 -4.90735 0.00846509 -2.99645 0.561565 15.201 11.5887 1.02628 17.4197 13.9456 -0.0 0.0 -0.0 10.8333 -1.39092 21.4675 19.2956 -8.19267 45.8769 1.74117 -40.775 0.647148 14.7516 0.281943 -1.8581 2.93229 -3.82687 18.4349 -0.0 0.0 -0.0 9.25199 8.94019 -18.2229 -17.249 12.5544 -50.5706 0.468133 13.0563 -0.0535703 60.1911 1.79097 7.12553 -1.87024 -21.4763 2.34601 0.0 0.0 0.0 -4.71025 37.4662 -7.33105 -2.2682 0.0867231 0.337268 28.4308 4.41821 -3.72001 32.3727 -0.0 -0.0 -0.0 0.0 -0.0 34.4365 -4.06308 -10.2664 -45.9652 0.889202 -6.81231 10.0763 -3.2266 1.4366 24.2739 -0.0 -0.0 0.0 0.0 0.0 
2777.13665791 697.594 -1880.43632819 10.5116569724 33.7184290051 1.75526316383 -4.93016 -0.594054 -2.93704 -4.92545 -0.406043 -2.96885 -4.89515 0.481383 -2.95758 -4.90735 0.00846509 -2.99645 0.561565 15.201 11.5887 1.02628 17.4197 13.9456 -0.0 0.0 -0.0 10.8333 -1.39092 21.4675 19.2956 -8.19267 45.8769 1.74117 -40.775 0.647148 14.7516 0.281943 -1.8581 2.93229 -3.82687 18.4349 -0.0 0.0 -0.0 9.25199 8.94019 -18.2229 -17.249 12.5544 -50.5706 0.468133 13.0563 -0.0535703 60.1911 1.79097 7.12553 -1.87024 -21.4763 2.34601 0.0 0.0 0.0 -4.71025 37.4662 -7.33105 -2.2682 0.0867231 0.337268 28.4308 4.41821 -3.72001 32.3727 -0.0 -0.0 -0.0 0.0 -0.0 34.4365 -4.06308 -10.2664 -45.9652 0.889202 -6.81231 10.0763 -3.2266 1.4366 24.2739 -0.0 -0.0 0.0 0.0 0.0 
2732.00881019 687.371 -1908.48343392 7.30440553245 30.3714525515 0.463659875881 -4.67651 -0.305484 -2.30981 -4.67355 -0.157926 -2.32456 -4.66204 0.520706 -2.27101 -4.6692 0.155608 -2.32471 -0.704434 15.9329 10.3806 -0.257198 20.1763 12.7868 -0.0 0.0 -0.0 10.7139 -1.886 21.2394 20.0074 -10.3236 44.1703 2.23315 -47.8811 0.991588 12.9196 0.273093 -1.62428 3.06814 -4.03339 19.3146 -0.0 0.0 -0.0 9.76328 9.36268 -19.3249 -18.8173 12.7942 -48.452 0.379455 10.6459 -0.0353545 58.9142 1.67822 7.00687 -2.35079 -23.619 4.07015 0.0 0.0 0.0 -11.6586 46.7751 3.09132 2.99156 -0.134702 -0.439213 30.4272 4.57785 -3.93492 34.8255 -0.0 -0.0 -0.0 0.0 -0.0 36.1313 -7.52044 -8.66684 -33.0766 0.0860164 -5.00558 7.12153 -5.74885 1.02275 23.72 -0.0 -0.0 0.0 0.0 0.0 
2715.14132827 683.011 -1923.64336867 5.54431075745 28.983414107 0.72802274232 -4.15402 -0.213814 -1.90006 -4.15201 -0.0924973 -1.90982 -4.14581 0.446684 -1.85916 -4.15061 0.147514 -1.90636 -0.373598 14.9023 8.15236 -0.00860846 20.0501 10.2922 -0.0 0.0 -0.0 10.8367 -1.81192 21.4963 20.5953 -10.6372 43.7141 2.26931 -48.3382 1.0185 10.7493 0.252943 -1.34782 2.8951 -4.16031 18.0304 -0.0 0.0 -0.0 9.79848 9.6723 -19.3978 -19.2793 12.9334 -49.578 0.337762 9.49879 -0.0280624 58.5214 1.64408 6.96987 -2.34298 -23.155 4.26178 0.0 0.0 0.0 -11.6694 50.565 4.56201 0.81863 -0.0345745 -0.120864 33.6539 5.05039 -4.26617 37.0974 -0.0 -0.0 -0.0 0.0 -0.0 35.2391 -11.623 -7.85528 -27.0121 -0.146862 -4.10447 5.18592 -0.192661 0.755863 23.441 -0.0 -0.0 0.0 0.0 0.0 
2701.21882108 679.877 -1944.45856079 3.64795434346 27.2872794665 0.893229487663 -3.77234 0.0624981 -1.59449 -3.77094 0.16382 -1.58728 -3.77386 0.592724 -1.48157 -3.77676 0.351329 -1.55657 0.608887 14.9394 6.07295 0.993977 21.5678 7.9642 -0.0 0.0 -0.0 10.7899 -1.56964 21.385 19.9205 -11.3874 42.8854 2.40095 -49.9358 1.11807 9.5089 0.236728 -1.19021 2.65404 -4.84434 16.0417 -0.0 0.0 -0.0 10.0073 10.1015 -19.8481 -19.8587 12.8899 -50.7644 0.267087 7.53703 -0.0175925 57.92 1.59229 6.91277 -2.43765 -23.3161 4.72465 0.0 0.0 0.0 -11.5321 50.1613 5.56729 -1.35244 0.0533197 0.200697 32.8152 4.54922 -4.18249 37.7932 -0.0 -0.0 -0.0 0.0 -0.0 33.1649 -16.2167 -8.39501 -19.1935 -0.304363 -2.91592 4.14816 1.98657 0.610208 22.7358 -0.0 -0.0 0.0 0.0 0.0 
2686.04736536 673.857 -1967.68782493 2.73944442306 26.3920347875 0.440728672183 -3.47484 0.252931 -1.32265 -3.47393 0.336575 -1.30388 -3.48088 0.675208 -1.16513 -3.48245 0.48274 -1.25712 0.0857437 14.5766 5.86665 0.437845 21.2229 7.76914 -0.0 0.0 -0.0 10.796 -1.74071 21.4064 19.8176 -12.2077 43.112 2.44258 -50.42 1.15005 8.17486 0.215485 -1.02114 2.71291 -4.36159 16.6593 -0.0 0.0 -0.0 10.222 10.6342 -20.3118 -19.9635 13.0596 -51.4442 0.212586 6.01174 -0.011163 57.5193 1.55812 6.87442 -2.55249 -23.598 5.23883 0.0 0.0 0.0 -12.486 51.0426 6.55071 -3.98949 0.143578 0.595307 34.1334 5.05908 -4.31375 39.3998 -0.0 -0.0 -0.0 0.0 -0.0 32.0406 -18.7492 -8.33884 -13.5573 -0.316748 -2.05159 3.52797 3.05186 0.521767 22.3145 -0.0 -0.0 0.0 0.0 0.0 
2596.86717379 656.968 -2044.25741185 2.31791868311 29.5713805949 -1.69286739527 -3.54531 -0.109704 -0.499009 -3.54518 -0.0777289 -0.504978 -3.54427 0.0616149 -0.507196 -3.54463 -0.0192595 -0.510562 2.53141 15.9718 4.23677 3.0954 24.4444 5.77976 -0.0 0.0 -0.0 9.84133 0.612227 19.2983 8.0632 -9.79943 44.9249 4.11336 -63.841 2.56306 1.10824 0.0377277 -0.136513 2.48312 -5.42184 14.6017 -0.0 0.0 -0.0 12.3137 13.3881 -24.9601 -21.1825 16.311 -49.3639 0.360948 10.1377 -0.0320162 58.335 1.62795 6.95222 -2.69011 -25.5686 4.97952 0.0 0.0 0.0 -11.7135 37.7495 5.48963 -16.6495 0.320483 2.52595 28.2033 7.151 -3.69335 39.2514 -0.0 -0.0 -0.0 0.0 -0.0 31.9849 -27.6903 -4.81879 -10.5453 -0.288513 -1.59036 -0.953124 3.60538 -0.142946 20.7137 -0.0 -0.0 0.0 0.0 0.0 
